<svg width="132" height="25" viewBox="0 0 132 25" fill="none" xmlns="http://www.w3.org/2000/svg">
<ellipse cx="11.579" cy="12.5" rx="6.25" ry="5.78947" transform="rotate(-90 11.579 12.5)" fill="#333333"/>
<ellipse cx="67.1579" cy="13.75" rx="5" ry="4.63158" transform="rotate(-90 67.1579 13.75)" fill="#333333"/>
<ellipse cx="39.3684" cy="13.75" rx="5" ry="4.63158" transform="rotate(-90 39.3684 13.75)" fill="#333333"/>
<ellipse cx="97.2632" cy="13.75" rx="5" ry="4.63158" transform="rotate(-90 97.2632 13.75)" fill="#333333"/>
<ellipse cx="127.368" cy="13.75" rx="5" ry="4.63158" transform="rotate(-90 127.368 13.75)" fill="#333333"/>
<path d="M11.5789 1C17.3508 1 22.1579 6.07527 22.1579 12.5C22.1579 18.9247 17.3508 24 11.5789 24C5.80705 24 1 18.9247 1 12.5C1 6.07527 5.80705 1 11.5789 1Z" stroke="#FED100" stroke-width="2"/>
</svg>
