<svg width="92" height="108" viewBox="0 0 92 108" fill="none" xmlns="http://www.w3.org/2000/svg">
<path d="M31.952 86.8842C27.2587 86.8842 23.064 85.6229 19.368 83.1002C15.7307 80.5189 12.8853 76.8815 10.832 72.1882C8.83733 67.4949 7.84 61.9802 7.84 55.6442C7.84 49.3082 8.83733 43.7935 10.832 39.1002C12.8853 34.4069 15.7307 30.7989 19.368 28.2762C23.064 25.6949 27.2587 24.4042 31.952 24.4042C36.6453 24.4042 40.8107 25.6949 44.448 28.2762C48.144 30.7989 50.9893 34.4069 52.984 39.1002C55.0373 43.7935 56.064 49.3082 56.064 55.6442C56.064 61.9802 55.0373 67.4949 52.984 72.1882C50.9893 76.8815 48.144 80.5189 44.448 83.1002C40.8107 85.6229 36.6453 86.8842 31.952 86.8842ZM31.952 82.7482C35.824 82.7482 39.2267 81.6922 42.16 79.5802C45.152 77.4095 47.4693 74.3002 49.112 70.2522C50.7547 66.1455 51.576 61.2762 51.576 55.6442C51.576 50.0122 50.7547 45.1722 49.112 41.1242C47.4693 37.0175 45.152 33.9082 42.16 31.7962C39.2267 29.6255 35.824 28.5402 31.952 28.5402C28.08 28.5402 24.648 29.6255 21.656 31.7962C18.7227 33.9082 16.4347 37.0175 14.792 41.1242C13.1493 45.1722 12.328 50.0122 12.328 55.6442C12.328 61.2762 13.1493 66.1455 14.792 70.2522C16.4347 74.3002 18.7227 77.4095 21.656 79.5802C24.648 81.6922 28.08 82.7482 31.952 82.7482ZM81.1639 24.8442V86.4442H76.6759V28.8922H61.6279V24.8442H81.1639Z" fill="#FED100"/>
<path d="M29.61 87.9228C24.81 87.9228 20.52 86.6328 16.74 84.0528C13.02 81.4128 10.11 77.6928 8.01 72.8928C5.97 68.0928 4.95 62.4528 4.95 55.9728C4.95 49.4928 5.97 43.8528 8.01 39.0528C10.11 34.2528 13.02 30.5628 16.74 27.9828C20.52 25.3428 24.81 24.0228 29.61 24.0228C34.41 24.0228 38.67 25.3428 42.39 27.9828C46.17 30.5628 49.08 34.2528 51.12 39.0528C53.22 43.8528 54.27 49.4928 54.27 55.9728C54.27 62.4528 53.22 68.0928 51.12 72.8928C49.08 77.6928 46.17 81.4128 42.39 84.0528C38.67 86.6328 34.41 87.9228 29.61 87.9228ZM29.61 83.6928C33.57 83.6928 37.05 82.6128 40.05 80.4528C43.11 78.2328 45.48 75.0528 47.16 70.9128C48.84 66.7128 49.68 61.7328 49.68 55.9728C49.68 50.2128 48.84 45.2628 47.16 41.1228C45.48 36.9228 43.11 33.7428 40.05 31.5828C37.05 29.3628 33.57 28.2528 29.61 28.2528C25.65 28.2528 22.14 29.3628 19.08 31.5828C16.08 33.7428 13.74 36.9228 12.06 41.1228C10.38 45.2628 9.54 50.2128 9.54 55.9728C9.54 61.7328 10.38 66.7128 12.06 70.9128C13.74 75.0528 16.08 78.2328 19.08 80.4528C22.14 82.6128 25.65 83.6928 29.61 83.6928ZM79.9404 24.4728V87.4728H75.3504V28.6128H59.9604V24.4728H79.9404Z" fill="#333333"/>
</svg>
