<svg width="112" height="108" viewBox="0 0 112 108" fill="none" xmlns="http://www.w3.org/2000/svg">
<path d="M31.61 87.7598C26.81 87.7598 22.52 86.4698 18.74 83.8898C15.02 81.2498 12.11 77.5298 10.01 72.7298C7.97 67.9298 6.95 62.2898 6.95 55.8098C6.95 49.3298 7.97 43.6898 10.01 38.8898C12.11 34.0898 15.02 30.3998 18.74 27.8198C22.52 25.1798 26.81 23.8598 31.61 23.8598C36.41 23.8598 40.67 25.1798 44.39 27.8198C48.17 30.3998 51.08 34.0898 53.12 38.8898C55.22 43.6898 56.27 49.3298 56.27 55.8098C56.27 62.2898 55.22 67.9298 53.12 72.7298C51.08 77.5298 48.17 81.2498 44.39 83.8898C40.67 86.4698 36.41 87.7598 31.61 87.7598ZM31.61 83.5298C35.57 83.5298 39.05 82.4498 42.05 80.2898C45.11 78.0698 47.48 74.8898 49.16 70.7498C50.84 66.5498 51.68 61.5698 51.68 55.8098C51.68 50.0498 50.84 45.0998 49.16 40.9598C47.48 36.7598 45.11 33.5798 42.05 31.4198C39.05 29.1998 35.57 28.0898 31.61 28.0898C27.65 28.0898 24.14 29.1998 21.08 31.4198C18.08 33.5798 15.74 36.7598 14.06 40.9598C12.38 45.0998 11.54 50.0498 11.54 55.8098C11.54 61.5698 12.38 66.5498 14.06 70.7498C15.74 74.8898 18.08 78.0698 21.08 80.2898C24.14 82.4498 27.65 83.5298 31.61 83.5298ZM108.13 83.1698V87.3098H64.8404V84.0698L91.4804 57.6098C94.9604 54.1298 97.3004 51.1598 98.5004 48.6998C99.7604 46.1798 100.39 43.5998 100.39 40.9598C100.39 36.9398 99.0104 33.7898 96.2504 31.5098C93.5504 29.2298 89.6204 28.0898 84.4604 28.0898C80.5004 28.0898 77.0204 28.6898 74.0204 29.8898C71.0804 31.0898 68.5304 32.9198 66.3704 35.3798L63.1304 32.4998C65.5304 29.7398 68.5604 27.6098 72.2204 26.1098C75.9404 24.6098 80.1404 23.8598 84.8204 23.8598C91.0004 23.8598 95.9204 25.3598 99.5804 28.3598C103.24 31.3598 105.07 35.4098 105.07 40.5098C105.07 43.7498 104.35 46.8398 102.91 49.7798C101.47 52.7198 98.7704 56.1398 94.8104 60.0398L71.5904 83.1698H108.13Z" fill="#FED100"/>
<path d="M29.61 87.7598C24.81 87.7598 20.52 86.4698 16.74 83.8898C13.02 81.2498 10.11 77.5298 8.01 72.7298C5.97 67.9298 4.95 62.2898 4.95 55.8098C4.95 49.3298 5.97 43.6898 8.01 38.8898C10.11 34.0898 13.02 30.3998 16.74 27.8198C20.52 25.1798 24.81 23.8598 29.61 23.8598C34.41 23.8598 38.67 25.1798 42.39 27.8198C46.17 30.3998 49.08 34.0898 51.12 38.8898C53.22 43.6898 54.27 49.3298 54.27 55.8098C54.27 62.2898 53.22 67.9298 51.12 72.7298C49.08 77.5298 46.17 81.2498 42.39 83.8898C38.67 86.4698 34.41 87.7598 29.61 87.7598ZM29.61 83.5298C33.57 83.5298 37.05 82.4498 40.05 80.2898C43.11 78.0698 45.48 74.8898 47.16 70.7498C48.84 66.5498 49.68 61.5698 49.68 55.8098C49.68 50.0498 48.84 45.0998 47.16 40.9598C45.48 36.7598 43.11 33.5798 40.05 31.4198C37.05 29.1998 33.57 28.0898 29.61 28.0898C25.65 28.0898 22.14 29.1998 19.08 31.4198C16.08 33.5798 13.74 36.7598 12.06 40.9598C10.38 45.0998 9.54 50.0498 9.54 55.8098C9.54 61.5698 10.38 66.5498 12.06 70.7498C13.74 74.8898 16.08 78.0698 19.08 80.2898C22.14 82.4498 25.65 83.5298 29.61 83.5298ZM106.13 83.1698V87.3098H62.8404V84.0698L89.4804 57.6098C92.9604 54.1298 95.3004 51.1598 96.5004 48.6998C97.7604 46.1798 98.3904 43.5998 98.3904 40.9598C98.3904 36.9398 97.0104 33.7898 94.2504 31.5098C91.5504 29.2298 87.6204 28.0898 82.4604 28.0898C78.5004 28.0898 75.0204 28.6898 72.0204 29.8898C69.0804 31.0898 66.5304 32.9198 64.3704 35.3798L61.1304 32.4998C63.5304 29.7398 66.5604 27.6098 70.2204 26.1098C73.9404 24.6098 78.1404 23.8598 82.8204 23.8598C89.0004 23.8598 93.9204 25.3598 97.5804 28.3598C101.24 31.3598 103.07 35.4098 103.07 40.5098C103.07 43.7498 102.35 46.8398 100.91 49.7798C99.4704 52.7198 96.7704 56.1398 92.8104 60.0398L69.5904 83.1698H106.13Z" fill="#333333"/>
</svg>
