<svg width="111" height="108" viewBox="0 0 111 108" fill="none" xmlns="http://www.w3.org/2000/svg">
<path d="M31.61 88.3667C26.81 88.3667 22.52 87.0767 18.74 84.4967C15.02 81.8567 12.11 78.1367 10.01 73.3367C7.97 68.5367 6.95 62.8967 6.95 56.4167C6.95 49.9367 7.97 44.2967 10.01 39.4967C12.11 34.6967 15.02 31.0067 18.74 28.4267C22.52 25.7867 26.81 24.4667 31.61 24.4667C36.41 24.4667 40.67 25.7867 44.39 28.4267C48.17 31.0067 51.08 34.6967 53.12 39.4967C55.22 44.2967 56.27 49.9367 56.27 56.4167C56.27 62.8967 55.22 68.5367 53.12 73.3367C51.08 78.1367 48.17 81.8567 44.39 84.4967C40.67 87.0767 36.41 88.3667 31.61 88.3667ZM31.61 84.1367C35.57 84.1367 39.05 83.0567 42.05 80.8967C45.11 78.6767 47.48 75.4967 49.16 71.3567C50.84 67.1567 51.68 62.1767 51.68 56.4167C51.68 50.6567 50.84 45.7067 49.16 41.5667C47.48 37.3667 45.11 34.1867 42.05 32.0267C39.05 29.8067 35.57 28.6967 31.61 28.6967C27.65 28.6967 24.14 29.8067 21.08 32.0267C18.08 34.1867 15.74 37.3667 14.06 41.5667C12.38 45.7067 11.54 50.6567 11.54 56.4167C11.54 62.1767 12.38 67.1567 14.06 71.3567C15.74 75.4967 18.08 78.6767 21.08 80.8967C24.14 83.0567 27.65 84.1367 31.61 84.1367ZM84.4794 52.3667C91.4394 52.5467 96.7194 54.2567 100.319 57.4967C103.979 60.6767 105.809 64.9067 105.809 70.1867C105.809 73.7267 104.969 76.8767 103.289 79.6367C101.609 82.3367 99.0894 84.4667 95.7294 86.0267C92.4294 87.5867 88.4394 88.3667 83.7594 88.3667C79.1994 88.3667 74.9094 87.6167 70.8894 86.1167C66.8694 84.5567 63.7494 82.4867 61.5294 79.9067L63.8694 76.3967C65.9094 78.6767 68.6694 80.5367 72.1494 81.9767C75.6894 83.4167 79.5594 84.1367 83.7594 84.1367C89.3394 84.1367 93.6294 82.9067 96.6294 80.4467C99.6294 77.9267 101.129 74.5067 101.129 70.1867C101.129 65.8067 99.5994 62.3867 96.5394 59.9267C93.4794 57.4667 88.8894 56.2367 82.7694 56.2367H78.8094V52.9067L97.4394 29.0567H63.8694V24.9167H103.379V28.1567L84.4794 52.3667Z" fill="#FED100"/>
<path d="M29.61 88.3667C24.81 88.3667 20.52 87.0767 16.74 84.4967C13.02 81.8567 10.11 78.1367 8.01 73.3367C5.97 68.5367 4.95 62.8967 4.95 56.4167C4.95 49.9367 5.97 44.2967 8.01 39.4967C10.11 34.6967 13.02 31.0067 16.74 28.4267C20.52 25.7867 24.81 24.4667 29.61 24.4667C34.41 24.4667 38.67 25.7867 42.39 28.4267C46.17 31.0067 49.08 34.6967 51.12 39.4967C53.22 44.2967 54.27 49.9367 54.27 56.4167C54.27 62.8967 53.22 68.5367 51.12 73.3367C49.08 78.1367 46.17 81.8567 42.39 84.4967C38.67 87.0767 34.41 88.3667 29.61 88.3667ZM29.61 84.1367C33.57 84.1367 37.05 83.0567 40.05 80.8967C43.11 78.6767 45.48 75.4967 47.16 71.3567C48.84 67.1567 49.68 62.1767 49.68 56.4167C49.68 50.6567 48.84 45.7067 47.16 41.5667C45.48 37.3667 43.11 34.1867 40.05 32.0267C37.05 29.8067 33.57 28.6967 29.61 28.6967C25.65 28.6967 22.14 29.8067 19.08 32.0267C16.08 34.1867 13.74 37.3667 12.06 41.5667C10.38 45.7067 9.54 50.6567 9.54 56.4167C9.54 62.1767 10.38 67.1567 12.06 71.3567C13.74 75.4967 16.08 78.6767 19.08 80.8967C22.14 83.0567 25.65 84.1367 29.61 84.1367ZM82.4794 52.3667C89.4394 52.5467 94.7194 54.2567 98.3194 57.4967C101.979 60.6767 103.809 64.9067 103.809 70.1867C103.809 73.7267 102.969 76.8767 101.289 79.6367C99.6094 82.3367 97.0894 84.4667 93.7294 86.0267C90.4294 87.5867 86.4394 88.3667 81.7594 88.3667C77.1994 88.3667 72.9094 87.6167 68.8894 86.1167C64.8694 84.5567 61.7494 82.4867 59.5294 79.9067L61.8694 76.3967C63.9094 78.6767 66.6694 80.5367 70.1494 81.9767C73.6894 83.4167 77.5594 84.1367 81.7594 84.1367C87.3394 84.1367 91.6294 82.9067 94.6294 80.4467C97.6294 77.9267 99.1294 74.5067 99.1294 70.1867C99.1294 65.8067 97.5994 62.3867 94.5394 59.9267C91.4794 57.4667 86.8894 56.2367 80.7694 56.2367H76.8094V52.9067L95.4394 29.0567H61.8694V24.9167H101.379V28.1567L82.4794 52.3667Z" fill="#333333"/>
</svg>
