<svg width="121" height="108" viewBox="0 0 121 108" fill="none" xmlns="http://www.w3.org/2000/svg">
<path d="M31.61 88.1463C26.81 88.1463 22.52 86.8563 18.74 84.2763C15.02 81.6363 12.11 77.9163 10.01 73.1163C7.97 68.3163 6.95 62.6763 6.95 56.1963C6.95 49.7163 7.97 44.0763 10.01 39.2763C12.11 34.4763 15.02 30.7863 18.74 28.2063C22.52 25.5663 26.81 24.2463 31.61 24.2463C36.41 24.2463 40.67 25.5663 44.39 28.2063C48.17 30.7863 51.08 34.4763 53.12 39.2763C55.22 44.0763 56.27 49.7163 56.27 56.1963C56.27 62.6763 55.22 68.3163 53.12 73.1163C51.08 77.9163 48.17 81.6363 44.39 84.2763C40.67 86.8563 36.41 88.1463 31.61 88.1463ZM31.61 83.9163C35.57 83.9163 39.05 82.8363 42.05 80.6763C45.11 78.4563 47.48 75.2763 49.16 71.1363C50.84 66.9363 51.68 61.9563 51.68 56.1963C51.68 50.4363 50.84 45.4863 49.16 41.3463C47.48 37.1463 45.11 33.9663 42.05 31.8063C39.05 29.5863 35.57 28.4763 31.61 28.4763C27.65 28.4763 24.14 29.5863 21.08 31.8063C18.08 33.9663 15.74 37.1463 14.06 41.3463C12.38 45.4863 11.54 50.4363 11.54 56.1963C11.54 61.9563 12.38 66.9363 14.06 71.1363C15.74 75.2763 18.08 78.4563 21.08 80.6763C24.14 82.8363 27.65 83.9163 31.61 83.9163ZM118.748 70.2363H105.518V87.6963H101.018V70.2363H65.1083V66.9063L99.3083 24.6963H104.438L70.8683 66.1863H101.108V50.7963H105.518V66.1863H118.748V70.2363Z" fill="#FED100"/>
<path d="M29.61 88.1463C24.81 88.1463 20.52 86.8563 16.74 84.2763C13.02 81.6363 10.11 77.9163 8.01 73.1163C5.97 68.3163 4.95 62.6763 4.95 56.1963C4.95 49.7163 5.97 44.0763 8.01 39.2763C10.11 34.4763 13.02 30.7863 16.74 28.2063C20.52 25.5663 24.81 24.2463 29.61 24.2463C34.41 24.2463 38.67 25.5663 42.39 28.2063C46.17 30.7863 49.08 34.4763 51.12 39.2763C53.22 44.0763 54.27 49.7163 54.27 56.1963C54.27 62.6763 53.22 68.3163 51.12 73.1163C49.08 77.9163 46.17 81.6363 42.39 84.2763C38.67 86.8563 34.41 88.1463 29.61 88.1463ZM29.61 83.9163C33.57 83.9163 37.05 82.8363 40.05 80.6763C43.11 78.4563 45.48 75.2763 47.16 71.1363C48.84 66.9363 49.68 61.9563 49.68 56.1963C49.68 50.4363 48.84 45.4863 47.16 41.3463C45.48 37.1463 43.11 33.9663 40.05 31.8063C37.05 29.5863 33.57 28.4763 29.61 28.4763C25.65 28.4763 22.14 29.5863 19.08 31.8063C16.08 33.9663 13.74 37.1463 12.06 41.3463C10.38 45.4863 9.54 50.4363 9.54 56.1963C9.54 61.9563 10.38 66.9363 12.06 71.1363C13.74 75.2763 16.08 78.4563 19.08 80.6763C22.14 82.8363 25.65 83.9163 29.61 83.9163ZM116.748 70.2363H103.518V87.6963H99.0183V70.2363H63.1083V66.9063L97.3083 24.6963H102.438L68.8683 66.1863H99.1083V50.7963H103.518V66.1863H116.748V70.2363Z" fill="#333333"/>
</svg>
