<svg width="15" height="16" viewBox="0 0 15 16" fill="none" xmlns="http://www.w3.org/2000/svg">
<path d="M13.3929 0.833984H1.60714C0.719531 0.833984 0 1.55251 0 2.43888V14.2081C0 15.0945 0.719531 15.813 1.60714 15.813H13.3929C14.2805 15.813 15 15.0945 15 14.2081V2.43888C15 1.55251 14.2805 0.833984 13.3929 0.833984ZM13.3929 14.2081H1.60714V2.43888H13.3929V14.2081ZM12.1921 6.12599L6.4134 11.8502C6.25587 12.0063 6.00147 12.0053 5.84521 11.848L2.80567 8.7881C2.64941 8.63079 2.65041 8.37675 2.80798 8.22067L3.56866 7.46718C3.72619 7.31113 3.98059 7.31214 4.13685 7.46948L6.13882 9.48486L10.8716 4.7967C11.0291 4.64066 11.2835 4.64166 11.4398 4.79897L12.1943 5.55856C12.3506 5.7159 12.3496 5.96994 12.1921 6.12599Z" fill="#333333"/>
</svg>
